<?xml version="1.0" encoding="utf-8"?>
<!-- Generator: Adobe Illustrator 23.0.4, SVG Export Plug-In . SVG Version: 6.00 Build 0)  -->
<svg version="1.1" id="Layer_1" xmlns="http://www.w3.org/2000/svg" xmlns:xlink="http://www.w3.org/1999/xlink" x="0px" y="0px"
	 width="216px" height="153.4px" viewBox="0 0 216 153.4" style="enable-background:new 0 0 216 153.4;" xml:space="preserve">
<g>
	<path d="M14.5,30h-3.2V18.1h3.2V30z M115.1,139h-14.2V66.3c0,0,0-0.1,0-0.1v-8.5c0-0.3-0.2-0.5-0.5-0.5h-1.1V33.9
		c0-0.3-0.2-0.5-0.5-0.5H23.4c-0.3,0-0.5,0.2-0.5,0.5v23.4h-3.3V14h176.8v43.2h-3.3V33.9c0-0.3-0.2-0.5-0.5-0.5h-75.5
		c-0.3,0-0.5,0.2-0.5,0.5v23.4h-1.1c-0.3,0-0.5,0.2-0.5,0.5v8.5c0,0,0,0.1,0,0.1V139z M190.6,30.3c0.3,0,0.5-0.2,0.5-0.5V17.6
		c0-0.3-0.2-0.5-0.5-0.5H25.4c-0.3,0-0.5,0.2-0.5,0.5v12.1c0,0.3,0.2,0.5,0.5,0.5H190.6z M113.1,63.8c0-0.2-0.2-0.4-0.4-0.4h-9.3
		c-0.2,0-0.4,0.2-0.4,0.4v71.4c0,0.2,0.2,0.4,0.4,0.4h9.3c0.2,0,0.4-0.2,0.4-0.4V63.8z M113.1,34.4c0-0.2-0.2-0.4-0.4-0.4h-9.3
		c-0.2,0-0.4,0.2-0.4,0.4v23.4c0,0.2,0.2,0.4,0.4,0.4h9.3c0.2,0,0.4-0.2,0.4-0.4V34.4z M100.9,148.1h14.2v-2.7h-14.2V148.1z
		 M103.8,57.3h8.5V34.8h-8.5V57.3z M25.9,29.3h164.3V18.1H25.9V29.3z M115.1,140h-14.2v4.5h14.2V140z M14.5,34.2h-3.2v23h3.2V34.2z
		 M103.8,134.7h8.5V64.2h-8.5V134.7z M210.5,10.2H5.5V11h205.1V10.2z M96,57.2v-9.6h-8.2c-0.4,3.9-3.6,6.8-7.4,6.8H61.9v2.8h-1.6
		v-2.8H41.8c-3.8,0-7-3-7.4-6.8h-8.2v9.6h-2.3V34.3h74.6v22.9H96z M34.4,46c0.4-3.9,3.6-6.8,7.4-6.8h18.5v-2.8H26.2V46H34.4z
		 M86.3,46.8c0-3.3-2.6-6-5.8-6H41.8c-3.2,0-5.8,2.7-5.8,6c0,3.3,2.6,6,5.8,6h38.7C83.7,52.8,86.3,50.1,86.3,46.8z M96,46v-9.6H61.9
		v2.8h18.5c3.8,0,7,3,7.4,6.8H96z M209.9,140h-0.6h-12v4.5h12.6V140z M151.3,65.8h4.9h4.9H192h4.9c0,0,0.1,0,0.1,0h4.1h3.7v-1.7
		h-88.7v1.7h4.4H151.3z M19.1,65.8H24h30.8h4.9h4.9h30.8h4.4v-1.7H11.2v1.7H15L19.1,65.8C19.1,65.8,19.1,65.8,19.1,65.8z M99.9,58.2
		h-1.1H23.4h-4.1l-7,5h87.7V58.2z M4.9,9.2L4.9,9.2H211h0.1l2.4-4.8H2.5L4.9,9.2z M214.3,0H1.7C0.8,0,0,0.8,0,1.7
		c0,0.9,0.8,1.7,1.7,1.7h212.6c0.9,0,1.7-0.8,1.7-1.7C216,0.8,215.2,0,214.3,0z M197.3,145.4v2.7h13.6v-2.7h-0.5H197.3z M5.1,148.1
		h13.6v-2.7H5.6H5.1V148.1z M204.8,18.1h-3.2V30h3.2V18.1z M200.6,66.8v68.4c0,0.3,0.2,0.5,0.5,0.5h4.2c0.3,0,0.5-0.2,0.5-0.5V66.3
		v-2.6c0,0,0-0.1,0-0.1c0,0,0,0,0,0c0,0,0,0,0-0.1c0,0,0,0,0,0c0,0,0,0,0-0.1c0,0,0,0,0,0c0,0,0,0-0.1-0.1c0,0,0,0,0,0l-8.2-5.8V14
		h1.2c0.2,0,0.3-0.1,0.4-0.3l1-1.8c0,0,0-0.1,0-0.1h8.9V139h-11.5V66.8H200.6z M200.6,30.4c0,0.3,0.2,0.5,0.5,0.5h4.2
		c0.3,0,0.5-0.2,0.5-0.5V17.6c0-0.3-0.2-0.5-0.5-0.5H201c-0.3,0-0.5,0.2-0.5,0.5V30.4z M205.7,57.7v-24c0-0.3-0.2-0.5-0.5-0.5H201
		c-0.3,0-0.5,0.2-0.5,0.5v24c0,0.3,0.2,0.5,0.5,0.5h4.2C205.5,58.2,205.7,58,205.7,57.7z M201.5,57.2h3.2v-23h-3.2V57.2z M14.5,66.8
		h-3.2v67.9h3.2V66.8z M6.1,140v4.5h12.6V140h-12H6.1z M18.7,139H7.2V11.9h8.9c0,0,0,0.1,0,0.1l1,1.8c0.1,0.2,0.2,0.3,0.4,0.3h1.2
		v43.4l-8.2,5.8c0,0,0,0,0,0c0,0,0,0-0.1,0.1c0,0,0,0,0,0c0,0,0,0,0,0.1c0,0,0,0,0,0c0,0,0,0,0,0.1c0,0,0,0,0,0c0,0,0,0.1,0,0.1v2.6
		v68.9c0,0.3,0.2,0.5,0.5,0.5H15c0.3,0,0.5-0.2,0.5-0.5V66.8h3.2V139z M10.3,30.4c0,0.3,0.2,0.5,0.5,0.5H15c0.3,0,0.5-0.2,0.5-0.5
		V17.6c0-0.3-0.2-0.5-0.5-0.5h-4.2c-0.3,0-0.5,0.2-0.5,0.5V30.4z M10.3,57.7c0,0.3,0.2,0.5,0.5,0.5H15c0.3,0,0.5-0.2,0.5-0.5v-24
		c0-0.3-0.2-0.5-0.5-0.5h-4.2c-0.3,0-0.5,0.2-0.5,0.5V57.7z M201.5,66.8v67.9h3.2V66.8H201.5z M189.8,57.2v-9.6h-8.2
		c-0.4,3.9-3.6,6.8-7.4,6.8h-18.5v2.8h-1.6v-2.8h-18.5c-3.8,0-7-3-7.4-6.8H120v9.6h-2.3V34.3h74.6v22.9H189.8z M128.2,46
		c0.4-3.9,3.6-6.8,7.4-6.8h18.5v-2.8H120V46H128.2z M180.1,46.8c0-3.3-2.6-6-5.8-6h-38.7c-3.2,0-5.8,2.7-5.8,6c0,3.3,2.6,6,5.8,6
		h38.7C177.4,52.8,180.1,50.1,180.1,46.8z M189.8,46v-9.6h-34.1v2.8h18.5c3.8,0,7,3,7.4,6.8H189.8z M17.8,13.1h180.5l0.4-0.8H17.3
		L17.8,13.1z M116.1,58.2v5h87.7l-7-5h-4.1h-75.5H116.1z M197.3,149h13.6v0.8v3.6H4.9V149h0.1h13.6h1V66.8h3.9v68.4
		c0,0.3,0.2,0.5,0.5,0.5h30.8c0.3,0,0.5-0.2,0.5-0.5V66.8h3.9V149h1V66.8h3.9v68.4c0,0.3,0.2,0.5,0.5,0.5h30.8
		c0.3,0,0.5-0.2,0.5-0.5V66.8h3.9V149h1h14.2h1V66.8h3.9v68.4c0,0.3,0.2,0.5,0.5,0.5h30.8c0.3,0,0.5-0.2,0.5-0.5V66.8h3.9V149h1
		V66.8h3.9v68.4c0,0.3,0.2,0.5,0.5,0.5H192c0.3,0,0.5-0.2,0.5-0.5V66.8h3.9V149H197.3z M159.5,139.5c-0.2,0-0.4,0.2-0.4,0.4v7.8
		c0,0.2,0.2,0.4,0.4,0.4h34c0.2,0,0.4-0.2,0.4-0.4v-7.8c0-0.2-0.2-0.4-0.4-0.4H159.5z M157.8,119c0,0.2,0.2,0.3,0.3,0.3h1.2
		c0.2,0,0.3-0.2,0.3-0.3v-9.4c0-0.2-0.2-0.3-0.3-0.3h-1.2c-0.2,0-0.3,0.2-0.3,0.3V119z M152.9,119c0,0.2,0.2,0.3,0.3,0.3h1.2
		c0.2,0,0.3-0.2,0.3-0.3v-9.4c0-0.2-0.2-0.3-0.3-0.3h-1.2c-0.2,0-0.3,0.2-0.3,0.3V119z M118.5,147.7c0,0.2,0.2,0.4,0.4,0.4h34
		c0.2,0,0.4-0.2,0.4-0.4v-7.8c0-0.2-0.2-0.4-0.4-0.4h-34c-0.2,0-0.4,0.2-0.4,0.4V147.7z M63.1,139.5c-0.2,0-0.4,0.2-0.4,0.4v7.8
		c0,0.2,0.2,0.4,0.4,0.4h34c0.2,0,0.4-0.2,0.4-0.4v-7.8c0-0.2-0.2-0.4-0.4-0.4H63.1z M61.3,119c0,0.2,0.2,0.3,0.3,0.3h1.2
		c0.2,0,0.3-0.2,0.3-0.3v-9.4c0-0.2-0.2-0.3-0.3-0.3h-1.2c-0.2,0-0.3,0.2-0.3,0.3V119z M56.4,119c0,0.2,0.2,0.3,0.3,0.3h1.2
		c0.2,0,0.3-0.2,0.3-0.3v-9.4c0-0.2-0.2-0.3-0.3-0.3h-1.2c-0.2,0-0.3,0.2-0.3,0.3V119z M22,147.7c0,0.2,0.2,0.4,0.4,0.4h34
		c0.2,0,0.4-0.2,0.4-0.4v-7.8c0-0.2-0.2-0.4-0.4-0.4h-34c-0.2,0-0.4,0.2-0.4,0.4V147.7z"/>
</g>
</svg>
