<?xml version="1.0" encoding="utf-8"?>
<!-- Generator: Adobe Illustrator 23.0.4, SVG Export Plug-In . SVG Version: 6.00 Build 0)  -->
<svg version="1.1" id="Layer_1" xmlns="http://www.w3.org/2000/svg" xmlns:xlink="http://www.w3.org/1999/xlink" x="0px" y="0px"
	 width="360px" height="27.9px" viewBox="0 0 360 27.9" style="enable-background:new 0 0 360 27.9;" xml:space="preserve">
<path d="M132.8,1.3v0.4l-0.7,0.5v20.1l0.7,0.5v0.4c0,0.1-0.1,0.1-0.1,0.1h-9.2c-0.1,0-0.1-0.1-0.1-0.1v-0.4l0.7-0.5V10
	c0,0-1,1.4-3.1,1.4c-2.5,0-2.6-1.4-3.6-1.4c-0.8,0-1,0.4-1,0.4v12l0.7,0.5v0.4c0,0.1-0.1,0.1-0.1,0.1h-9.2c-0.1,0-0.1-0.1-0.1-0.1
	v-0.4l0.7-0.5V2.2l-0.7-0.5V1.3c0-0.1,0.1-0.1,0.1-0.1h9.2c0.1,0,0.1,0.1,0.1,0.1v0.4l-0.7,0.5v6.5c0,0,1-1.4,3.1-1.4
	c2.5,0,2.6,1.4,3.6,1.4c0.8,0,1-0.4,1-0.4V2.2l-0.7-0.5V1.3c0-0.1,0.1-0.1,0.1-0.1h9.2C132.7,1.2,132.8,1.3,132.8,1.3z M79.8,0.9
	h-8.3c-0.1,0-0.1,0.1-0.1,0.1v0.4L72.1,2v13.3c-0.6,0.8-1.6,1.3-3.3,1.3c-1.9,0-3.5-1.6-3.5-3.5V2L66,1.4V1.1C66,1,66,0.9,65.9,0.9
	h-8.3c-0.1,0-0.1,0.1-0.1,0.1v0.4L58.2,2V12c0,0,0.6,5.9,9.2,5.9c3.6,0,4.8-1.3,4.8-1.3v1.3h7.7c0.1,0,0.1-0.1,0.1-0.1v-0.4
	l-0.7-0.5V2L80,1.4V1.1C80,1,79.9,0.9,79.8,0.9z M56.3,9.3c0,6.4-7,8.9-11.9,8.9c-4.9,0-11.9-2.5-11.9-8.9c0-6.4,7-8.9,11.9-8.9
	C49.4,0.4,56.3,2.9,56.3,9.3z M49.2,9c0-2.6-1.1-7.4-4.7-7.4S39.7,6.4,39.7,9v0.5c0,2.6,1.1,7.4,4.7,7.4s4.7-4.8,4.7-7.4V9z
	 M105.8,1.2H81.2c-0.2,0-0.3,0.1-0.3,0.3v1.7c0,0.1,0.1,0.1,0.1,0.1h0.5c0.1,0,0.3-0.1,0.3-0.2l0.7-0.8c0.1-0.1,0.2-0.1,0.4-0.1h6.8
	v20.1l-0.7,0.5v0.4c0,0.1,0.1,0.1,0.1,0.1h9.2c0.1,0,0.1-0.1,0.1-0.1v-0.4L98,22.3V2.2h6c0.1,0,0.3,0.1,0.4,0.1l0.7,0.8
	c0.1,0.1,0.2,0.2,0.3,0.2h0.5c0.1,0,0.1-0.1,0.1-0.1V1.5C106.1,1.3,106,1.2,105.8,1.2z M206.2,15.9v6.4l0.7,0.5v0.4
	c0,0.1-0.1,0.1-0.1,0.1h-9.2c-0.1,0-0.1-0.1-0.1-0.1v-0.4l0.7-0.5V2.2l-0.7-0.5V1.3c0-0.1,0.1-0.1,0.1-0.1h17c3.7,0,9.7,2.2,9.7,7.3
	c0,5.2-6,7.3-9.7,7.3H206.2z M206.2,2.6v11.8c1.7,0.3,5.6,0,5.6,0c3,0,5.4-2.6,5.4-5.9c0-3.3-2.4-5.9-5.4-5.9
	C211.8,2.6,207.9,2.3,206.2,2.6z M177.1,10.4c0,5.9-7.5,8.3-12.1,8.3h-8.8v7l0.7,0.5v0.4c0,0.1-0.1,0.1-0.1,0.1h-9.2
	c-0.1,0-0.1-0.1-0.1-0.1v-0.4l0.7-0.5V3l-0.7-0.5V2.1c0-0.1,0.1-0.1,0.1-0.1h9.2c0.1,0,0.1,0,0.1,0.1h8.2
	C169.6,2.1,177.1,4.6,177.1,10.4z M168.2,10.4c0-3.7-3-6.7-6.7-6.7c0,0-3.1-0.2-5.4-0.2v13.7c2.3,0.1,5.4-0.2,5.4-0.2
	C165.2,17.1,168.2,14.1,168.2,10.4z M250.5,20.7l-7.1-13l4.5-4.2l4-2.1V1.1c0-0.1-0.1-0.1-0.1-0.1h-6.3c-0.1,0-0.1,0.1-0.1,0.1v0.4
	l1.5,1.2h0l-9.8,9.1V2.2l0.7-0.5V1.3c0-0.1-0.1-0.1-0.1-0.1h-9.2c-0.1,0-0.1,0.1-0.1,0.1v0.4l0.7,0.5v20.1l-0.7,0.5v0.4
	c0,0.1,0.1,0.1,0.1,0.1h9.2c0.1,0,0.1-0.1,0.1-0.1v-0.4l-0.7-0.5v-8.7l1.2-1.1l5.4,9.8l-0.7,0.5v0.4c0,0.1,0.1,0.1,0.1,0.1h9.2
	c0.1,0,0.1-0.1,0.1-0.1v-0.4l-0.7-0.5C251.8,22.3,251.3,22,250.5,20.7z M327.2,8.9c-4.8-0.2-7.1,1.8-7.1,1.8V2.2h10.8
	c0.1,0,0.3,0.1,0.4,0.1l0.7,0.8c0.1,0.1,0.2,0.2,0.3,0.2h0.5c0.1,0,0.1-0.1,0.1-0.1V1.5c0-0.2-0.1-0.3-0.3-0.3h-21.3
	c-0.1,0-0.1,0.1-0.1,0.1v0.4l0.7,0.5v20.1l-0.7,0.5v0.4c0,0.1,0.1,0.1,0.1,0.1h9.2c0.1,0,0.1-0.1,0.1-0.1v-0.4l-0.7-0.5V11.7
	c0,0,2.6-1.4,6-0.2c2.6,0.9,3.1,3.1,3.2,4c0,0.2,0.3,0.3,0.4,0.1l3.4-3.3c0.1-0.1,0.2-0.4,0.1-0.5C332.7,11.1,331.1,9.1,327.2,8.9z
	 M289.5,20.8l-3.5-2.2c-0.2-0.1-0.5,0-0.6,0.3c-0.4,4.2-3.1,8.6-9.5,6.9c-3.9-1-6.3-5.6-6.3-10.9c0-6.3,3.7-11.9,8.8-11.9
	c4.4,0,6.5,2.6,6.6,6.4c0,0.2,0.3,0.3,0.4,0.2l3.1-3.1c0.3-0.3,0.3-0.7,0-1c-2.5-2.8-7.3-4.3-13.7-3.4c-6.4,0.9-12.6,5.2-12.6,12.7
	c0,7.3,5.9,11.6,12.2,12.7c7.1,1.3,12.7-1,15.3-5.6C290,21.5,289.9,21.1,289.5,20.8z M355.7,12.7c0.1,0.1-5-0.3-3.7,5.4
	c0.4-0.3,2.3-0.4,2.3,1.5s-2.8,3.3-7.5,3.3c-1.9,0-3-0.4-3.7-0.9V10.9c0,0,0,0,0,0s2.6-0.9,4.8-0.6c2.2,0.4,3.1,1.8,3.5,2.8
	c0.1,0.2,0.3,0.3,0.4,0.1l2.4-2.8c0.1-0.1,0.2-0.4,0.1-0.5c-1.2-1.3-3.2-1.9-5.9-1.8c-2.7,0.1-5.2,1.9-5.2,1.9s0,0,0,0V2.2h9.8
	c0.1,0,0.3,0.1,0.4,0.1l0.7,0.8c0.1,0.1,0.2,0.2,0.3,0.2h0.5c0.1,0,0.1-0.1,0.1-0.1V1.5c0-0.2-0.1-0.3-0.3-0.3h-20.2
	c-0.1,0-0.1,0.1-0.1,0.1v0.4l0.7,0.5V23l-0.7,0.5v0.4c0,0.1,0.1,0.1,0.1,0.1h0.2c2.9,0,3.9-0.9,9-0.4c0,0,0,0,0.1,0
	c1.9,0.2,4.9,0.4,6.9,0.2c2.5-0.3,9.3-1,9.3-6.1C360,12.6,355.6,12.6,355.7,12.7z M310.4,18l0.5,0.4v0.3c0,0.1,0,0.1-0.1,0.1h-7.1
	c-0.1,0-0.1,0-0.1-0.1v-0.3l0.5-0.4l-3.5-6.2c0.3,1,0.1,2.3-1.3,3.3c-2,1.4-5.5,0.9-5.5,0.9c-0.7,1.2-1.1,2-1.1,2l0.5,0.4v0.3
	c0,0.1,0,0.1-0.1,0.1h-3.7c-0.1,0-0.1,0-0.1-0.1v-0.3l0.5-0.4c0,0,0.1,0,0.7-1c0-0.1,0.1-0.1,0.1-0.1c1.9-3.2,7.7-13.1,9-15.4
	c0.1-0.1,0.2-0.2,0.3-0.2c0.1,0,0.2,0.1,0.3,0.2l9,15.3C309.2,16.6,309.9,17.6,310.4,18z M300,10.6l-1.5-2.8c-1.4,2.6-2.9,5.3-4,7.3
	c0.8,0,3.7-0.3,3.7-2.5c0-0.9-0.9-1.3-0.9-1.3s0.3-1.2,1.8-1.2C299.3,10.1,299.7,10.3,300,10.6z M196.4,18l0.5,0.4v0.3
	c0,0.1,0,0.1-0.1,0.1h-7.1c-0.1,0-0.1,0-0.1-0.1v-0.3l0.5-0.4l-3.5-6.2c0.3,1,0.1,2.3-1.3,3.3c-2,1.4-5.5,0.9-5.5,0.9l0,0
	c-0.7,1.2-1.1,2-1.1,2l0.5,0.4v0.3c0,0.1,0,0.1-0.1,0.1h-3.7c-0.1,0-0.1,0-0.1-0.1v-0.3l0.5-0.4c0,0,0.1,0,0.7-1
	c0-0.1,0.1-0.1,0.1-0.1c1.9-3.2,7.7-13.1,9-15.4c0.1-0.1,0.2-0.2,0.3-0.2c0.1,0,0.2,0.1,0.3,0.2l9,15.3
	C195.2,16.6,195.9,17.6,196.4,18z M186,10.6l-1.5-2.8c-1.4,2.6-2.9,5.3-4,7.3c0.8,0,3.7-0.3,3.7-2.5c0-0.9-0.9-1.3-0.9-1.3
	s0.3-1.2,1.8-1.2C185.3,10.1,185.7,10.3,186,10.6z M224.7,16.1c0,0-1.3-0.1-2.2,0.9c-0.8,0.7-1,1.8-3.2,1.6
	c-3.6-0.2-7.8-2.7-7.8-2.7l-5.3,0c0.1,0,2.2,0.1,4.9,2.6c2.7,2.5,5.7,5.1,10.1,5.1c4.4,0,6.2-2.1,6.2-4.4S225.6,16.2,224.7,16.1z
	 M17.5,8.2C12.6,7.9,10,7.5,10,4.7c0-2.2,4-3.3,5.8-3.3c8.6,0,9.8,4.8,10,5.8c0,0.1,0.1,0.1,0.2,0.1l3.6-2.2c0.1,0,0.1-0.1,0.1-0.2
	C29.3,4.1,27.2,0,15.8,0C7.4,0,2.2,3.6,2,7.8c-0.2,4.1,3.8,6.7,9.8,7.7c2.4,0.4,12.3,0.4,12.3,5.9c0,5.2-8.8,4.9-8.8,4.9
	c-5.3,0-8.9-2.9-10-5.9c-0.6-1.8-0.5-3.6-0.4-4.4c0-0.1-0.1-0.2-0.2-0.1l-4.8,4.4C0,20.4,0,20.5,0,20.6c0.6,0.9,5.2,7.1,15.3,7.1
	c10.3,0,16.7-4.5,17-9.6C32.6,12.4,27.5,8.9,17.5,8.2z"/>
</svg>
