<?xml version="1.0" encoding="utf-8"?>
<!-- Generator: Adobe Illustrator 23.0.4, SVG Export Plug-In . SVG Version: 6.00 Build 0)  -->
<svg version="1.1" id="Layer_1" xmlns="http://www.w3.org/2000/svg" xmlns:xlink="http://www.w3.org/1999/xlink" x="0px" y="0px"
	 width="138.2px" height="216px" viewBox="0 0 138.2 216" style="enable-background:new 0 0 138.2 216;" xml:space="preserve">
<style type="text/css">
	.st0{fill:#000003;}
</style>
<path class="st0" d="M61.7,117.8v-25c4.2-0.2,9.8,0.3,9.8,0.3c6.8,0,12.2,5.5,12.2,12.2c0,6.8-5.5,12.2-12.2,12.2
	C71.5,117.5,65.9,118,61.7,117.8z M2.1,106.2h7.7c1.2,0,2.1-0.9,2.1-2.1V68.9c0-30.2,23.6-55,53.3-57c1.1-0.1,2-1,2-2.1V2.1
	c0-1.2-1-2.2-2.2-2.1C28.8,2.1,0,32.2,0,68.9v35.1C0,105.2,0.9,106.2,2.1,106.2z M65.3,204.1c-29.7-2-53.3-26.8-53.3-57v-35.1
	c0-1.2-0.9-2.1-2.1-2.1H2.1c-1.2,0-2.1,0.9-2.1,2.1v35.1c0,36.7,28.8,66.9,65.1,68.9c1.2,0.1,2.2-0.9,2.2-2.1v-7.7
	C67.3,205,66.4,204.1,65.3,204.1z M136.1,109.8h-7.7c-1.2,0-2.1,0.9-2.1,2.1v35.1c0,30.2-23.6,55-53.3,57c-1.1,0.1-2,1-2,2.1v7.7
	c0,1.2,1,2.2,2.2,2.1c36.2-2.1,65.1-32.2,65.1-68.9v-35.1C138.2,110.8,137.2,109.8,136.1,109.8z M69.1,200.6
	c-29.5,0-53.5-24-53.5-53.5V68.9c0-29.5,24-53.5,53.5-53.5c29.5,0,53.5,24,53.5,53.5v78.1C122.6,176.6,98.6,200.6,69.1,200.6z
	 M51.9,83.5c18.3,0,29.6-8.1,30-17.5c0.5-10.3-8.5-16.8-26.2-18c-8.6-0.6-13.3-1.3-13.3-6.5c0-4.1,7-6,10.2-6
	c15.2,0,17.3,8.8,17.6,10.6c0,0.2,0.2,0.2,0.3,0.2l6.4-4c0.1-0.1,0.2-0.2,0.1-0.3c-0.5-1.4-4.3-9-24.5-9c-14.8,0-24,6.6-24.3,14.2
	c-0.3,7.4,6.7,11.8,17.4,14c5.2,1.1,21.8,0.6,21.8,10.8c0,9.5-15.6,9-15.6,9c-9.4,0-15.8-5.3-17.7-10.7c-1.1-3.2-0.9-6.6-0.6-8.1
	c0-0.2-0.2-0.4-0.4-0.2l-8.4,8.1c-0.1,0.1-0.1,0.3,0,0.4C25.9,72.3,33.9,83.5,51.9,83.5z M45.9,135h16.7c0.1,0,0.3-0.1,0.3-0.3v-0.7
	l-1.2-0.9v-12.7h16.1c8.4,0,22.1-4.5,22.1-15.2S86.2,90.1,77.8,90.1l-31.9-0.2c-0.1,0-0.3,0.1-0.3,0.3v0.7l1.2,0.9v41.4l-1.2,0.9
	v0.7C45.7,134.9,45.8,135,45.9,135z M107.8,170.4c0.4-0.7,0.1-1.5-0.5-1.9l-6.4-4c-0.4-0.3-1,0-1,0.5c-0.7,7.6-5.6,15.6-17.4,12.6
	c-7.2-1.8-11.4-10.2-11.4-19.9c0-11.4,6.8-21,16-21c8,0,11.9,4.1,12,11.1c0,0.4,0.5,0.6,0.8,0.3l5.7-5.6c0.5-0.5,0.5-1.3,0.1-1.8
	c-4.5-5.1-13.3-7.9-25-6.2c-11.7,1.7-23,9.6-23,23.2c0,13.3,10.8,21.1,22.3,23.1C92.9,182.9,103.2,178.9,107.8,170.4z M73.1,0
	c-1.2-0.1-2.2,0.9-2.2,2.1v7.7c0,1.1,0.9,2,2,2.1c29.7,2,53.3,26.8,53.3,57v35.1c0,1.2,0.9,2.1,2.1,2.1h7.7c1.2,0,2.1-0.9,2.1-2.1
	V68.9C138.2,32.2,109.3,2.1,73.1,0z"/>
</svg>
